<?xml version="1.0" standalone="no"?>
<!DOCTYPE svg PUBLIC "-//W3C//DTD SVG 20010904//EN"
 "http://www.w3.org/TR/2001/REC-SVG-20010904/DTD/svg10.dtd">
<svg version="1.0" xmlns="http://www.w3.org/2000/svg"
 width="108.000000pt" height="108.000000pt" viewBox="0 0 108.000000 108.000000"
 preserveAspectRatio="xMidYMid meet">
<metadata>
Created by potrace 1.11, written by Peter Selinger 2001-2013
</metadata>
<g transform="translate(0.000000,108.000000) scale(0.100000,-0.100000)"
fill="#000000" stroke="none">
<path d="M440 983 c-46 -49 -129 -134 -184 -191 l-101 -103 200 -195 199 -194
38 37 38 37 -160 158 -161 158 38 41 38 41 120 -121 c66 -67 123 -121 126
-121 4 0 6 11 4 25 -1 14 2 25 7 25 5 0 6 5 2 12 -4 6 -7 25 -6 43 1 27 -11
44 -88 122 l-89 90 34 37 c22 24 39 35 47 30 7 -4 80 -73 161 -153 82 -80 149
-147 151 -148 1 -2 19 14 39 35 l37 38 -171 170 c-95 93 -181 179 -192 192
-11 12 -26 22 -32 22 -7 0 -49 -39 -95 -87z"/>
<path d="M727 438 l51 -51 -114 -116 -115 -116 -143 145 c-188 192 -170 179
-206 141 -16 -17 -31 -35 -32 -40 -2 -5 83 -97 189 -204 l192 -194 178 179
c98 99 183 186 190 193 9 10 1 23 -39 64 l-52 51 -75 0 -76 0 52 -52z"/>
</g>
</svg>
